<svg width="120" height="120" viewBox="0 0 120 120" fill="none" xmlns="http://www.w3.org/2000/svg">
<g clip-path="url(#clip0_529_846)">
<mask id="path-1-inside-1_529_846" fill="white">
<path d="M0 16C0 7.16344 7.16345 0 16 0H104C112.837 0 120 7.16345 120 16V120H0V16Z"/>
</mask>
<path d="M-4 16C-4 4.95431 4.95431 -4 16 -4H104C115.046 -4 124 4.95431 124 16H116C116 9.37258 110.627 4 104 4H16C9.37258 4 4 9.37258 4 16H-4ZM120 120H0H120ZM-4 120V16C-4 4.95431 4.95431 -4 16 -4V4C9.37258 4 4 9.37258 4 16V120H-4ZM104 -4C115.046 -4 124 4.95431 124 16V120H116V16C116 9.37258 110.627 4 104 4V-4Z" fill="#52525B" mask="url(#path-1-inside-1_529_846)"/>
<rect x="12" y="12" width="12" height="12" rx="6" fill="#52525B"/>
<path d="M82.092 106.409C79.8876 106.409 78.0948 104.615 78.0948 102.41C78.0948 100.206 79.888 98.4132 82.092 98.4132C84.2964 98.4132 86.0892 100.206 86.0892 102.41C86.0896 104.615 84.2964 106.409 82.092 106.409ZM37.908 106.409C35.7036 106.409 33.9108 104.615 33.9108 102.41C33.9108 100.206 35.7036 98.4132 37.908 98.4132C40.1124 98.4132 41.9052 100.206 41.9052 102.41C41.9052 104.615 40.112 106.409 37.908 106.409ZM83.526 82.3292L91.5152 68.4924C91.7351 68.1105 91.7945 67.657 91.6804 67.2314C91.5664 66.8058 91.2882 66.4427 90.9068 66.222C90.5249 66.0021 90.0714 65.9427 89.6458 66.0567C89.2202 66.1708 88.8572 66.449 88.6364 66.8304L80.5472 80.8424C74.3608 78.0192 67.4132 76.4468 60 76.4468C52.5868 76.4468 45.6392 78.0192 39.4532 80.8424L31.364 66.8304C31.1432 66.449 30.7801 66.1708 30.3544 66.0567C29.9287 65.9427 29.4751 66.0021 29.0932 66.222C28.7116 66.4425 28.4332 66.8055 28.3191 67.2313C28.205 67.657 28.2646 68.1106 28.4848 68.4924L36.474 82.3292C22.7556 89.7904 13.3728 103.679 12 120.088H108C106.626 103.679 97.2432 89.7904 83.526 82.3292" fill="#D4D4D8"/>
</g>
<defs>
<clipPath id="clip0_529_846">
<rect width="120" height="120" fill="white"/>
</clipPath>
</defs>
</svg>
