<svg width="16" height="16" viewBox="0 0 16 16" fill="none" xmlns="http://www.w3.org/2000/svg">
<path d="M15.83 8.17996C15.83 7.65329 15.7834 7.15329 15.7034 6.66663H8.17004V9.67329H12.4834C12.29 10.66 11.7234 11.4933 10.8834 12.06V14.06H13.4567C14.9634 12.6666 15.83 10.6133 15.83 8.17996Z" fill="#4285F4"/>
<path d="M8.17003 15.9999C10.33 15.9999 12.1367 15.2799 13.4567 14.0599L10.8834 12.0599C10.1634 12.5399 9.25003 12.8333 8.17003 12.8333C6.08336 12.8333 4.3167 11.4266 3.68336 9.52661H1.03003V11.5866C2.34336 14.1999 5.04336 15.9999 8.17003 15.9999Z" fill="#34A853"/>
<path d="M3.68338 9.52666C3.51671 9.04666 3.43004 8.53333 3.43004 7.99999C3.43004 7.46666 3.52338 6.95333 3.68338 6.47333V4.41333H1.03004C0.483377 5.49333 0.170044 6.70666 0.170044 7.99999C0.170044 9.29333 0.483377 10.5067 1.03004 11.5867L3.68338 9.52666Z" fill="#FBBC05"/>
<path d="M8.17003 3.16667C9.35003 3.16667 10.4034 3.57334 11.2367 4.36667L13.5167 2.08667C12.1367 0.793334 10.33 0 8.17003 0C5.04336 0 2.34336 1.8 1.03003 4.41334L3.68336 6.47334C4.3167 4.57334 6.08336 3.16667 8.17003 3.16667Z" fill="#EA4335"/>
</svg>
