<svg width="120" height="120" viewBox="0 0 120 120" fill="none" xmlns="http://www.w3.org/2000/svg">
<g clip-path="url(#clip0_529_852)">
<mask id="path-1-inside-1_529_852" fill="white">
<path d="M0 16C0 7.16344 7.16345 0 16 0H104C112.837 0 120 7.16345 120 16V120H0V16Z"/>
</mask>
<path d="M-4 16C-4 4.95431 4.95431 -4 16 -4H104C115.046 -4 124 4.95431 124 16H116C116 9.37258 110.627 4 104 4H16C9.37258 4 4 9.37258 4 16H-4ZM120 120H0H120ZM-4 120V16C-4 4.95431 4.95431 -4 16 -4V4C9.37258 4 4 9.37258 4 16V120H-4ZM104 -4C115.046 -4 124 4.95431 124 16V120H116V16C116 9.37258 110.627 4 104 4V-4Z" fill="#52525B" mask="url(#path-1-inside-1_529_852)"/>
<path d="M31 4H89V10C89 14.4183 85.4183 18 81 18H39C34.5817 18 31 14.4183 31 10V4Z" fill="#52525B"/>
<path d="M60.4354 79.7532C57.7199 79.7532 53.5178 76.6654 49.0922 76.7742C43.2487 76.8515 37.8922 80.1629 34.8817 85.4077C28.8176 95.9345 33.3177 111.483 39.2328 120.039C42.1345 124.204 45.5575 128.89 50.0948 128.744C54.4487 128.558 56.0815 125.917 61.3664 125.917C66.6112 125.917 68.0978 128.744 72.7096 128.632C77.3987 128.558 80.3748 124.393 83.2393 120.188C86.5506 115.353 87.9255 110.663 88 110.406C87.8883 110.368 78.8853 106.908 78.7765 96.4931C78.702 87.7851 85.8803 83.6202 86.2155 83.4341C82.1222 77.4474 75.8376 76.7771 73.6405 76.6281C67.9116 76.1813 63.1137 79.7504 60.4354 79.7504V79.7532ZM70.1115 70.9708C72.5263 68.072 74.1217 64.0188 73.6778 60C70.2204 60.149 66.0526 62.3059 63.5605 65.2076C61.3263 67.7741 59.3956 71.9046 59.9141 75.8461C63.7467 76.144 67.6911 73.8754 70.1087 70.9737" fill="#D4D4D8"/>
</g>
<defs>
<clipPath id="clip0_529_852">
<rect width="120" height="120" fill="white"/>
</clipPath>
</defs>
</svg>
