<svg width="150" height="120" viewBox="0 0 150 120" fill="none" xmlns="http://www.w3.org/2000/svg">
<mask id="mask0_552_891" style="mask-type:alpha" maskUnits="userSpaceOnUse" x="0" y="0" width="75" height="120">
<path d="M0 120V0H75V120H0Z" fill="#C4C4C4"/>
</mask>
<g mask="url(#mask0_552_891)">
<rect x="1" y="1" width="148" height="118" rx="8" fill="white" stroke="#E4E4E7" stroke-width="2"/>
<path d="M39 31H149V111C149 115.418 145.418 119 141 119H31V39C31 34.5817 34.5817 31 39 31Z" fill="#F4F4F5" stroke="#E4E4E7" stroke-width="2"/>
<rect x="48" y="48" width="12" height="12" rx="6" fill="#FC4546"/>
<rect x="69" y="48" width="12" height="12" rx="6" fill="#FEB026"/>
</g>
<mask id="mask1_552_891" style="mask-type:alpha" maskUnits="userSpaceOnUse" x="75" y="0" width="75" height="120">
<path d="M150 120H75V0H150V120Z" fill="#C4C4C4"/>
</mask>
<g mask="url(#mask1_552_891)">
<rect x="1" y="1" width="148" height="118" rx="8" fill="#27272A" stroke="#52525B" stroke-width="2"/>
<path d="M39 31H149V111C149 115.418 145.418 119 141 119H31V39C31 34.5817 34.5817 31 39 31Z" fill="#3F3F46" stroke="#52525B" stroke-width="2"/>
<rect x="69" y="48" width="12" height="12" rx="6" fill="#FEB026"/>
<rect x="90" y="48" width="12" height="12" rx="6" fill="#29C231"/>
</g>
</svg>
